# xmcd
#
# Track frame offsets:
#	150
#	15747
#	26938
#	40714
#	56237
#	72267
#	85784
#	100736
#	112824
#	126713
#	140779
#	145678
#	158490
#	168144
#	184927
#	195793
#
# Disc length: 2811 seconds
#
# Revision: 1
# Processed by: cddbd v1.5.2PL0 Copyright (c) Steve Scherf et al.
# Submitted via: audiograbber 1.83.01
#
DISCID=d60af910
DTITLE=verschiedene - Weiße Weihnacht - Die schönsten Lieder zum Fest
DYEAR=2015
DGENRE=Weihnachtslieder
TTITLE0=HEINO - Winter Wunderland
TTITLE1=SCHWESTERHERZ - Feliz Navidad
TTITLE2=HANSI HINTERSEER - A bärige Weihnacht
TTITLE3=FLORIAN SILBEREISEN - Weihnacht ist erst, wenn du bei mir bist 
TTITLE4=NICOLE - Bald gibt es ein Freudenfest 
TTITLE5=SCHÜRZENJÄGER - A Weihnacht wie's früher war
TTITLE6=GESCHWISTER HOFMANN - Das allerschönste Wintermärchen
TTITLE7=ROLAND KAISER - Es ist ein Ros' entsprungen
TTITLE8=GABY  ALBRECHT and RONNY WEILAND - Der kleine Trommler
TTITLE9=DIE FLIPPERS - Sterne der Nacht
TTITLE10=PAOLA - Alle Jahre wieder
TTITLE11=DIE SCHÄFER - Es ist Weihnachtsmarkt
TTITLE12=ROGER WHITTAKER - Denn es ist Weihnachtszeit
TTITLE13=SIMONE - Ein Stern der für dich scheint
TTITLE14=ANGELIKA MILSTER - Schlittenfahrt 
TTITLE15=DIE WILDECKER HERZBUBEN - Heidschi Bumbeidschi
EXTD=
EXTT0=
EXTT1=
EXTT2=
EXTT3=
EXTT4=
EXTT5=
EXTT6=
EXTT7=
EXTT8=
EXTT9=
EXTT10=
EXTT11=
EXTT12=
EXTT13=
EXTT14=
EXTT15=
PLAYORDER=
